{
	"asset":{
		"generator":"Khronos glTF Blender I/O v4.4.55",
		"version":"2.0"
	},
	"extensionsUsed":[
		"KHR_materials_clearcoat"
	],
	"scene":0,
	"scenes":[
		{
			"name":"Scene",
			"nodes":[
				4
			]
		}
	],
	"nodes":[
		{
			"mesh":0,
			"name":"ToyCar"
		},
		{
			"children":[
				0
			],
			"name":"RetroCar",
			"rotation":[
				-0.7071069478988647,
				0,
				0,
				0.7071066498756409
			],
			"scale":[
				9,
				8.999999046325684,
				8.999999046325684
			],
			"translation":[
				0,
				1.1920928955078125e-05,
				2.9802322387695312e-06
			]
		},
		{
			"children":[
				1
			],
			"name":"RootNode"
		},
		{
			"children":[
				2
			],
			"name":"RetroCar.fbx",
			"rotation":[
				0.70710688829422,
				0,
				0,
				0.7071066498756409
			],
			"scale":[
				0.010000000707805157,
				0.010000000707805157,
				0.010000000707805157
			]
		},
		{
			"children":[
				3
			],
			"name":"Sketchfab_model",
			"rotation":[
				-0.70710688829422,
				0,
				0,
				0.7071066498756409
			],
			"scale":[
				0.05000000074505806,
				0.05000000819563866,
				0.05000000819563866
			]
		}
	],
	"materials":[
		{
			"doubleSided":true,
			"emissiveFactor":[
				1,
				1,
				1
			],
			"emissiveTexture":{
				"index":0
			},
			"extensions":{
				"KHR_materials_clearcoat":{
					"clearcoatFactor":1,
					"clearcoatRoughnessFactor":0.03999999910593033,
					"clearcoatTexture":{
						"index":1
					}
				}
			},
			"name":"Material.001",
			"normalTexture":{
				"index":2
			},
			"pbrMetallicRoughness":{
				"baseColorTexture":{
					"index":3
				},
				"metallicFactor":0.75,
				"metallicRoughnessTexture":{
					"index":4
				}
			}
		}
	],
	"meshes":[
		{
			"name":"RetroCar_Material_0",
			"physic":true,
			"primitives":[
				{
					"attributes":{
						"POSITION":0,
						"NORMAL":1,
						"TEXCOORD_0":2
					},
					"indices":3,
					"material":0
				}
			]
		}
	],
	"textures":[
		{
			"sampler":0,
			"source":0
		},
		{
			"sampler":0,
			"source":1
		},
		{
			"sampler":0,
			"source":2
		},
		{
			"sampler":0,
			"source":3
		},
		{
			"sampler":0,
			"source":4
		}
	],
	"images":[
		{
			"mimeType":"image/png",
			"name":"Material_emissive",
			"uri":"Material_emissive.png"
		},
		{
			"mimeType":"image/png",
			"name":"Material_clear_coat",
			"uri":"Material_clear_coat.png"
		},
		{
			"mimeType":"image/png",
			"name":"Material_normal",
			"uri":"Material_normal.png"
		},
		{
			"mimeType":"image/png",
			"name":"Material_baseColor",
			"uri":"Material_baseColor.png"
		},
		{
			"mimeType":"image/png",
			"name":"Material_metallicRoughness",
			"uri":"Material_metallicRoughness.png"
		}
	],
	"accessors":[
		{
			"bufferView":0,
			"componentType":5126,
			"count":38692,
			"max":[
				27.211650848388672,
				19.5723819732666,
				60.690887451171875
			],
			"min":[
				-27.20687484741211,
				-14.21118450164795,
				-58.10429382324219
			],
			"type":"VEC3"
		},
		{
			"bufferView":1,
			"componentType":5126,
			"count":38692,
			"type":"VEC3"
		},
		{
			"bufferView":2,
			"componentType":5126,
			"count":38692,
			"type":"VEC2"
		},
		{
			"bufferView":3,
			"componentType":5123,
			"count":157362,
			"type":"SCALAR"
		}
	],
	"bufferViews":[
		{
			"buffer":0,
			"byteLength":464304,
			"byteOffset":0,
			"target":34962
		},
		{
			"buffer":0,
			"byteLength":464304,
			"byteOffset":464304,
			"target":34962
		},
		{
			"buffer":0,
			"byteLength":309536,
			"byteOffset":928608,
			"target":34962
		},
		{
			"buffer":0,
			"byteLength":314724,
			"byteOffset":1238144,
			"target":34963
		}
	],
	"samplers":[
		{
			"magFilter":9729,
			"minFilter":9987
		}
	],
	"buffers":[
		{
			"byteLength":1552868,
			"uri":"retrocar.bin"
		}
	]
}
