{
	"asset":{
		"generator":"Khronos glTF Blender I/O v4.4.55",
		"version":"2.0"
	},
	"extensionsUsed":[
		"KHR_materials_clearcoat"
	],
	"scene":0,
	"scenes":[
		{
			"name":"Scene",
			"nodes":[
				0
			]
		}
	],
	"nodes":[
		{
			"mesh":0,
			"name":"ToyCar",
			"rotation":[
				0.70710688829422,
				0,
				0,
				0.7071066498756409
			],
			"scale":[
				0.0010000000474974513,
				0.0009999999310821295,
				0.0009999999310821295
			],
			"translation":[
				0,
				0,
				1
			]
		}
	],
	"materials":[
		{
			"doubleSided":true,
			"emissiveFactor":[
				1,
				1,
				1
			],
			"emissiveTexture":{
				"index":0
			},
			"extensions":{
				"KHR_materials_clearcoat":{
					"clearcoatFactor":1
				}
			},
			"name":"ToyCar",
			"normalTexture":{
				"index":1
			},
			"occlusionTexture":{
				"index":2
			},
			"pbrMetallicRoughness":{
				"baseColorTexture":{
					"index":3
				},
				"metallicRoughnessTexture":{
					"index":2
				}
			}
		}
	],
	"meshes":[
		{
			"name":"ToyCar",
			"primitives":[
				{
					"attributes":{
						"POSITION":0,
						"NORMAL":1,
						"TEXCOORD_0":2
					},
					"indices":3,
					"material":0
				}
			]
		}
	],
	"textures":[
		{
			"sampler":0,
			"source":0
		},
		{
			"sampler":0,
			"source":1
		},
		{
			"sampler":0,
			"source":2
		},
		{
			"sampler":0,
			"source":3
		}
	],
	"images":[
		{
			"mimeType":"image/png",
			"name":"ToyCar_emissive",
			"uri":"ToyCar_emissive.png"
		},
		{
			"mimeType":"image/png",
			"name":"ToyCar_normal",
			"uri":"ToyCar_normal.png"
		},
		{
			"mimeType":"image/png",
			"name":"ToyCar_occlusion_roughness_metallic",
			"uri":"ToyCar_occlusion_roughness_metallic.png"
		},
		{
			"mimeType":"image/png",
			"name":"ToyCar_basecolor",
			"uri":"ToyCar_basecolor.png"
		}
	],
	"accessors":[
		{
			"bufferView":0,
			"componentType":5126,
			"count":67369,
			"max":[
				93.53763580322266,
				126.16624450683594,
				189.7447509765625
			],
			"min":[
				-93.53764343261719,
				9.924240112304688,
				-194.0495147705078
			],
			"type":"VEC3"
		},
		{
			"bufferView":1,
			"componentType":5126,
			"count":67369,
			"type":"VEC3"
		},
		{
			"bufferView":2,
			"componentType":5126,
			"count":67369,
			"type":"VEC2"
		},
		{
			"bufferView":3,
			"componentType":5125,
			"count":266511,
			"type":"SCALAR"
		}
	],
	"bufferViews":[
		{
			"buffer":0,
			"byteLength":808428,
			"byteOffset":0,
			"target":34962
		},
		{
			"buffer":0,
			"byteLength":808428,
			"byteOffset":808428,
			"target":34962
		},
		{
			"buffer":0,
			"byteLength":538952,
			"byteOffset":1616856,
			"target":34962
		},
		{
			"buffer":0,
			"byteLength":1066044,
			"byteOffset":2155808,
			"target":34963
		}
	],
	"samplers":[
		{
			"magFilter":9729,
			"minFilter":9987
		}
	],
	"buffers":[
		{
			"byteLength":3221852,
			"uri":"toycar.bin"
		}
	]
}
