{
	"asset":{
		"generator":"Khronos glTF Blender I/O v4.4.55",
		"version":"2.0"
	},
	"scene":0,
	"scenes":[
		{
			"name":"Scene",
			"nodes":[
				0
			]
		}
	],
	"nodes":[
		{
			"mesh":0,
			"name":"SAND",
			"scale":[
				0.05000000074505806,
				0.05000000074505806,
				0.05000000074505806
			]
		}
	],
	"materials":[
		{
			"doubleSided":true,
			"name":"M_SAND",
			"pbrMetallicRoughness":{
				"baseColorTexture":{
					"index":0
				},
				"metallicFactor":0,
				"metallicRoughnessTexture":{
					"index":1
				}
			}
		}
	],
	"meshes":[
		{
			"name":"Circle.001",
			"physic":true,
			"primitives":[
				{
					"attributes":{
						"POSITION":0,
						"NORMAL":1,
						"TEXCOORD_0":2
					},
					"indices":3,
					"material":0
				}
			]
		}
	],
	"textures":[
		{
			"sampler":0,
			"source":0
		},
		{
			"sampler":0,
			"source":1
		}
	],
	"images":[
		{
			"mimeType":"image/png",
			"name":"T_SAND_DIFFUSE",
			"uri":"T_SAND_DIFFUSE.png"
		},
		{
			"mimeType":"image/png",
			"name":"T_SAND_ROUGHNESS",
			"uri":"T_SAND_ROUGHNESS.png"
		}
	],
	"accessors":[
		{
			"bufferView":0,
			"componentType":5126,
			"count":12815,
			"max":[
				1.552672028541565,
				0.3275586664676666,
				1.552672028541565
			],
			"min":[
				-1.552672028541565,
				-0.3275586664676666,
				-1.552672028541565
			],
			"type":"VEC3"
		},
		{
			"bufferView":1,
			"componentType":5126,
			"count":12815,
			"type":"VEC3"
		},
		{
			"bufferView":2,
			"componentType":5126,
			"count":12815,
			"type":"VEC2"
		},
		{
			"bufferView":3,
			"componentType":5123,
			"count":75168,
			"type":"SCALAR"
		}
	],
	"bufferViews":[
		{
			"buffer":0,
			"byteLength":153780,
			"byteOffset":0,
			"target":34962
		},
		{
			"buffer":0,
			"byteLength":153780,
			"byteOffset":153780,
			"target":34962
		},
		{
			"buffer":0,
			"byteLength":102520,
			"byteOffset":307560,
			"target":34962
		},
		{
			"buffer":0,
			"byteLength":150336,
			"byteOffset":410080,
			"target":34963
		}
	],
	"samplers":[
		{
			"magFilter":9729,
			"minFilter":9987
		}
	],
	"buffers":[
		{
			"byteLength":560416,
			"uri":"coin.bin"
		}
	]
}
