{
	"asset":{
		"generator":"Khronos glTF Blender I/O v4.4.55",
		"version":"2.0"
	},
	"scene":0,
	"scenes":[
		{
			"name":"Scene",
			"nodes":[
				0
			]
		}
	],
	"nodes":[
		{
			"mesh":0,
			"name":"tank",
			"scale":[
				0.004999999888241291,
				0.004999999888241291,
				0.004999999888241291
			]
		}
	],
	"materials":[
		{
			"doubleSided":true,
			"name":"Standard_1.001",
			"pbrMetallicRoughness":{
				"baseColorFactor":[
					1,
					0.0028856871649622917,
					0,
					1
				],
				"metallicFactor":0,
				"roughnessFactor":0.5
			}
		},
		{
			"doubleSided":true,
			"name":"Standard_1",
			"pbrMetallicRoughness":{
				"metallicFactor":0,
				"roughnessFactor":0.5
			}
		}
	],
	"meshes":[
		{
			"name":"tank",
			"physic":true,
			"primitives":[
				{
					"attributes":{
						"POSITION":0,
						"NORMAL":1,
						"TEXCOORD_0":2
					},
					"indices":3,
					"material":0
				},
				{
					"attributes":{
						"POSITION":4,
						"NORMAL":5,
						"TEXCOORD_0":6
					},
					"indices":7,
					"material":1
				}
			]
		}
	],
	"accessors":[
		{
			"bufferView":0,
			"componentType":5126,
			"count":17716,
			"max":[
				29.67816162109375,
				25.881378173828125,
				34.253318786621094
			],
			"min":[
				-24.190460205078125,
				-18.87249755859375,
				-39.77696990966797
			],
			"type":"VEC3"
		},
		{
			"bufferView":1,
			"componentType":5126,
			"count":17716,
			"type":"VEC3"
		},
		{
			"bufferView":2,
			"componentType":5126,
			"count":17716,
			"type":"VEC2"
		},
		{
			"bufferView":3,
			"componentType":5123,
			"count":94848,
			"type":"SCALAR"
		},
		{
			"bufferView":4,
			"componentType":5126,
			"count":3087,
			"max":[
				-10.715025901794434,
				-3.212371349334717,
				29.38800621032715
			],
			"min":[
				-17.364683151245117,
				-9.764114379882812,
				25.466596603393555
			],
			"type":"VEC3"
		},
		{
			"bufferView":5,
			"componentType":5126,
			"count":3087,
			"type":"VEC3"
		},
		{
			"bufferView":6,
			"componentType":5126,
			"count":3087,
			"type":"VEC2"
		},
		{
			"bufferView":7,
			"componentType":5123,
			"count":17856,
			"type":"SCALAR"
		}
	],
	"bufferViews":[
		{
			"buffer":0,
			"byteLength":212592,
			"byteOffset":0,
			"target":34962
		},
		{
			"buffer":0,
			"byteLength":212592,
			"byteOffset":212592,
			"target":34962
		},
		{
			"buffer":0,
			"byteLength":141728,
			"byteOffset":425184,
			"target":34962
		},
		{
			"buffer":0,
			"byteLength":189696,
			"byteOffset":566912,
			"target":34963
		},
		{
			"buffer":0,
			"byteLength":37044,
			"byteOffset":756608,
			"target":34962
		},
		{
			"buffer":0,
			"byteLength":37044,
			"byteOffset":793652,
			"target":34962
		},
		{
			"buffer":0,
			"byteLength":24696,
			"byteOffset":830696,
			"target":34962
		},
		{
			"buffer":0,
			"byteLength":35712,
			"byteOffset":855392,
			"target":34963
		}
	],
	"buffers":[
		{
			"byteLength":891104,
			"uri":"fuel.bin"
		}
	]
}
